<svg width="78" height="32" viewBox="0 0 78 32" fill="none" xmlns="http://www.w3.org/2000/svg">
<path d="M30.4732 15.2141C31.3578 15.4892 32.0225 15.9789 32.4657 16.6797C32.9089 17.3823 33.1305 18.2376 33.1305 19.2454C33.1305 20.6666 32.6643 21.7773 31.7336 22.5793C30.8029 23.3813 29.4982 23.7823 27.8194 23.7823H20.9058V7.74427H27.7272C29.2837 7.74427 30.4856 8.10268 31.3329 8.82128C32.1803 9.53988 32.604 10.5548 32.604 11.8696C32.604 13.4434 31.8949 14.5576 30.4749 15.2141H30.4732ZM29.9928 12.2812C29.9928 11.5786 29.7907 11.0587 29.3865 10.7233C28.9823 10.388 28.3211 10.2194 27.4064 10.2194H23.4922V14.3447H27.4294C29.1383 14.3447 29.9928 13.6581 29.9928 12.283V12.2812ZM27.7485 21.3089C28.7554 21.3089 29.4698 21.1137 29.8899 20.7252C30.3101 20.3348 30.5193 19.7741 30.5193 19.0413C30.5193 18.3085 30.3048 17.7017 29.8775 17.3114C29.4503 16.921 28.7324 16.7276 27.7254 16.7276H23.4904V21.3107H27.7485V21.3089Z" fill="url(#paint0_linear_1_111)"/>
<path d="M30.4732 15.2141C31.3578 15.4892 32.0225 15.9789 32.4657 16.6797C32.9089 17.3823 33.1305 18.2376 33.1305 19.2454C33.1305 20.6666 32.6643 21.7773 31.7336 22.5793C30.8029 23.3813 29.4982 23.7823 27.8194 23.7823H20.9058V7.74427H27.7272C29.2837 7.74427 30.4856 8.10268 31.3329 8.82128C32.1803 9.53988 32.604 10.5548 32.604 11.8696C32.604 13.4434 31.8949 14.5576 30.4749 15.2141H30.4732ZM29.9928 12.2812C29.9928 11.5786 29.7907 11.0587 29.3865 10.7233C28.9823 10.388 28.3211 10.2194 27.4064 10.2194H23.4922V14.3447H27.4294C29.1383 14.3447 29.9928 13.6581 29.9928 12.283V12.2812ZM27.7485 21.3089C28.7554 21.3089 29.4698 21.1137 29.8899 20.7252C30.3101 20.3348 30.5193 19.7741 30.5193 19.0413C30.5193 18.3085 30.3048 17.7017 29.8775 17.3114C29.4503 16.921 28.7324 16.7276 27.7254 16.7276H23.4904V21.3107H27.7485V21.3089Z" fill="black" fill-opacity="0.2"/>
<path d="M36.4029 5.49799C36.8904 5.49799 37.2964 5.64703 37.6155 5.94511C37.9364 6.2432 38.0959 6.62113 38.0959 7.0789C38.0959 7.53667 37.9364 7.94122 37.6155 8.24817C37.2946 8.55336 36.8904 8.70595 36.4029 8.70595C35.9154 8.70595 35.5325 8.55336 35.2117 8.24817C34.8908 7.94299 34.7313 7.55264 34.7313 7.0789C34.7313 6.60516 34.8908 6.2432 35.2117 5.94511C35.5325 5.64703 35.9296 5.49799 36.4029 5.49799ZM35.1213 23.7841V11.1811H37.7077V23.7841H35.1213Z" fill="url(#paint1_linear_1_111)"/>
<path d="M36.4029 5.49799C36.8904 5.49799 37.2964 5.64703 37.6155 5.94511C37.9364 6.2432 38.0959 6.62113 38.0959 7.0789C38.0959 7.53667 37.9364 7.94122 37.6155 8.24817C37.2946 8.55336 36.8904 8.70595 36.4029 8.70595C35.9154 8.70595 35.5325 8.55336 35.2117 8.24817C34.8908 7.94299 34.7313 7.55264 34.7313 7.0789C34.7313 6.60516 34.8908 6.2432 35.2117 5.94511C35.5325 5.64703 35.9296 5.49799 36.4029 5.49799ZM35.1213 23.7841V11.1811H37.7077V23.7841H35.1213Z" fill="black" fill-opacity="0.2"/>
<path d="M40.271 23.7841V6.14029H42.8805V23.7841H40.271Z" fill="url(#paint2_linear_1_111)"/>
<path d="M40.271 23.7841V6.14029H42.8805V23.7841H40.271Z" fill="black" fill-opacity="0.2"/>
<path d="M45.3996 23.7841V6.14029H48.0091V23.7841H45.3996Z" fill="url(#paint3_linear_1_111)"/>
<path d="M45.3996 23.7841V6.14029H48.0091V23.7841H45.3996Z" fill="black" fill-opacity="0.2"/>
<path d="M51.7867 5.49799C52.2742 5.49799 52.6801 5.64703 53.001 5.94511C53.3219 6.2432 53.4814 6.62113 53.4814 7.0789C53.4814 7.53667 53.3219 7.94122 53.001 8.24817C52.6801 8.55336 52.2759 8.70595 51.7867 8.70595C51.2974 8.70595 50.9163 8.55336 50.5972 8.24817C50.2763 7.94299 50.1168 7.55264 50.1168 7.0789C50.1168 6.60516 50.2763 6.2432 50.5972 5.94511C50.918 5.64703 51.3151 5.49799 51.7867 5.49799ZM50.505 23.7841V11.1811H53.0914V23.7841H50.505Z" fill="url(#paint4_linear_1_111)"/>
<path d="M51.7867 5.49799C52.2742 5.49799 52.6801 5.64703 53.001 5.94511C53.3219 6.2432 53.4814 6.62113 53.4814 7.0789C53.4814 7.53667 53.3219 7.94122 53.001 8.24817C52.6801 8.55336 52.2759 8.70595 51.7867 8.70595C51.2974 8.70595 50.9163 8.55336 50.5972 8.24817C50.2763 7.94299 50.1168 7.55264 50.1168 7.0789C50.1168 6.60516 50.2763 6.2432 50.5972 5.94511C50.918 5.64703 51.3151 5.49799 51.7867 5.49799ZM50.505 23.7841V11.1811H53.0914V23.7841H50.505Z" fill="black" fill-opacity="0.2"/>
<path d="M62.2032 8.15768C60.4642 8.15768 59.5938 9.14243 59.5938 11.1137V11.1829H64.2419V13.6119H59.5938V23.7858H57.0073V13.6119H54.6727V11.1829H57.0073V11.0001C57.0073 9.35002 57.4683 8.08316 58.3919 7.196C59.3154 6.31062 60.4872 5.86704 61.9054 5.86704C62.9743 5.86704 63.9192 6.0498 64.7435 6.41708L64.2862 8.54803L63.9192 8.4327C63.3236 8.24995 62.751 8.15768 62.2014 8.15768H62.2032Z" fill="url(#paint5_linear_1_111)"/>
<path d="M62.2032 8.15768C60.4642 8.15768 59.5938 9.14243 59.5938 11.1137V11.1829H64.2419V13.6119H59.5938V23.7858H57.0073V13.6119H54.6727V11.1829H57.0073V11.0001C57.0073 9.35002 57.4683 8.08316 58.3919 7.196C59.3154 6.31062 60.4872 5.86704 61.9054 5.86704C62.9743 5.86704 63.9192 6.0498 64.7435 6.41708L64.2862 8.54803L63.9192 8.4327C63.3236 8.24995 62.751 8.15768 62.2014 8.15768H62.2032Z" fill="black" fill-opacity="0.2"/>
<path d="M75.2293 11.1811H78.0001L69.6665 29.5116H66.8957L70.216 22.1783L65.2488 11.1793H68.0196L71.5917 19.382L75.2311 11.1793L75.2293 11.1811Z" fill="url(#paint6_linear_1_111)"/>
<path d="M75.2293 11.1811H78.0001L69.6665 29.5116H66.8957L70.216 22.1783L65.2488 11.1793H68.0196L71.5917 19.382L75.2311 11.1793L75.2293 11.1811Z" fill="black" fill-opacity="0.2"/>
<path d="M12.4587 25.4643L0 31.4988V20.9132L9.867 15.7642L12.4605 17.1162L12.5828 17.1801C15.9581 18.942 15.8854 23.8036 12.457 25.4626L12.4587 25.4643Z" fill="url(#paint7_linear_1_111)"/>
<path d="M12.4587 25.4643L0 31.4988V20.9132L9.867 15.7642L12.4605 17.1162L12.5828 17.1801C15.9581 18.942 15.8854 23.8036 12.457 25.4626L12.4587 25.4643Z" fill="black" fill-opacity="0.2"/>
<path d="M12.5846 14.3465L9.867 15.7642L0 10.6169V0.0295448L12.4587 6.06399C15.8872 7.72297 15.9599 12.5864 12.5846 14.3465Z" fill="url(#paint8_linear_1_111)"/>
<path d="M12.5846 14.3465L9.867 15.7642L0 10.6169V0.0295448L12.4587 6.06399C15.8872 7.72297 15.9599 12.5864 12.5846 14.3465Z" fill="black" fill-opacity="0.2"/>
<path d="M9.867 15.7659L12.4605 17.118C12.0882 18.1826 11.3277 19.1318 10.179 19.7333L0 25.0456V20.9132L9.867 15.7642V15.7659Z" fill="url(#paint9_linear_1_111)"/>
<path d="M9.867 15.7659L12.4605 17.118C12.0882 18.1826 11.3277 19.1318 10.179 19.7333L0 25.0456V20.9132L9.867 15.7642V15.7659Z" fill="black" fill-opacity="0.2"/>
<path d="M12.5846 14.3465L9.867 15.7642L0 10.6169V6.38158L10.0531 11.2503C11.4199 11.9121 12.2655 13.0708 12.5846 14.3465Z" fill="url(#paint10_linear_1_111)"/>
<path d="M12.5846 14.3465L9.867 15.7642L0 10.6169V6.38158L10.0531 11.2503C11.4199 11.9121 12.2655 13.0708 12.5846 14.3465Z" fill="black" fill-opacity="0.2"/>
<defs>
<linearGradient id="paint0_linear_1_111" x1="13.8942" y1="15.7633" x2="33.4884" y2="15.7633" gradientUnits="userSpaceOnUse">
<stop stop-color="#38BDFF"/>
<stop offset="1" stop-color="#003FFF"/>
</linearGradient>
<linearGradient id="paint1_linear_1_111" x1="32.8014" y1="14.641" x2="38.1944" y2="14.641" gradientUnits="userSpaceOnUse">
<stop stop-color="#38BDFF"/>
<stop offset="1" stop-color="#003FFF"/>
</linearGradient>
<linearGradient id="paint2_linear_1_111" x1="38.7743" y1="14.9622" x2="42.9568" y2="14.9622" gradientUnits="userSpaceOnUse">
<stop stop-color="#38BDFF"/>
<stop offset="1" stop-color="#003FFF"/>
</linearGradient>
<linearGradient id="paint3_linear_1_111" x1="43.9029" y1="14.9622" x2="48.0854" y2="14.9622" gradientUnits="userSpaceOnUse">
<stop stop-color="#38BDFF"/>
<stop offset="1" stop-color="#003FFF"/>
</linearGradient>
<linearGradient id="paint4_linear_1_111" x1="48.1869" y1="14.641" x2="53.5799" y2="14.641" gradientUnits="userSpaceOnUse">
<stop stop-color="#38BDFF"/>
<stop offset="1" stop-color="#003FFF"/>
</linearGradient>
<linearGradient id="paint5_linear_1_111" x1="48.8964" y1="14.8264" x2="65.0384" y2="14.8264" gradientUnits="userSpaceOnUse">
<stop stop-color="#38BDFF"/>
<stop offset="1" stop-color="#003FFF"/>
</linearGradient>
<linearGradient id="paint6_linear_1_111" x1="57.9353" y1="20.3455" x2="78.3734" y2="20.3455" gradientUnits="userSpaceOnUse">
<stop stop-color="#38BDFF"/>
<stop offset="1" stop-color="#003FFF"/>
</linearGradient>
<linearGradient id="paint7_linear_1_111" x1="-8.64458" y1="23.6315" x2="15.5131" y2="23.6315" gradientUnits="userSpaceOnUse">
<stop stop-color="#38BDFF"/>
<stop offset="1" stop-color="#003FFF"/>
</linearGradient>
<linearGradient id="paint8_linear_1_111" x1="-8.64559" y1="7.89686" x2="15.5149" y2="7.89686" gradientUnits="userSpaceOnUse">
<stop stop-color="#38BDFF"/>
<stop offset="1" stop-color="#003FFF"/>
</linearGradient>
<linearGradient id="paint9_linear_1_111" x1="-7.14683" y1="20.4049" x2="12.8253" y2="20.4049" gradientUnits="userSpaceOnUse">
<stop stop-color="#38BDFF"/>
<stop offset="1" stop-color="#003FFF"/>
</linearGradient>
<linearGradient id="paint10_linear_1_111" x1="-7.218" y1="11.0729" x2="12.953" y2="11.0729" gradientUnits="userSpaceOnUse">
<stop stop-color="#38BDFF"/>
<stop offset="1" stop-color="#003FFF"/>
</linearGradient>
</defs>
</svg>
